<svg width="99" height="25" viewBox="0 0 99 25" fill="none" xmlns="http://www.w3.org/2000/svg">
    <path fill-rule="evenodd" clip-rule="evenodd"
        d="M44.7209 4.10838V0.891663H47.9376V4.10838H44.7209ZM62.765 9.32789H59.8004V7.35154H62.765V3.89292H64.9884V7.35154H68.694V9.32789H64.9884V15.3805V17.8509C64.9884 17.9744 65.0131 18.0485 65.0872 18.1226C65.1613 18.1968 65.2354 18.2215 65.3589 18.2215H67.8294H68.694V20.1978H66.4706C63.9631 20.1978 62.765 18.9997 62.765 16.4922V9.32789ZM82.9326 13.7747C82.9326 9.32791 79.9681 6.98099 76.2378 6.98099C72.5074 6.98099 69.5429 9.32791 69.5429 13.7747C69.5429 18.2215 72.5074 20.5684 76.2378 20.5684C79.9681 20.5684 82.9326 18.2215 82.9326 13.7747ZM71.791 13.7747C71.791 10.6866 73.6438 8.95734 76.2378 8.95734C78.8317 8.95734 80.6845 10.6866 80.6845 13.7747C80.6845 16.8627 78.8317 18.592 76.2378 18.592C73.6438 18.592 71.791 16.8627 71.791 13.7747ZM92.263 20.5684C95.3757 20.5684 98.5873 18.4685 98.5873 13.7747C98.5873 9.08086 95.3757 6.98099 92.263 6.98099C90.4595 6.98099 89.002 7.52449 87.9891 8.80911C87.915 8.90793 87.8409 8.98204 87.7174 8.98204C87.5938 8.98204 87.5444 8.90793 87.5444 8.78441V7.35156H85.3457V24.8917H87.5691V18.7897C87.5691 18.6662 87.6185 18.592 87.7421 18.592C87.8656 18.592 87.9397 18.6662 88.0138 18.765C89.002 20.0249 90.4595 20.5684 92.263 20.5684ZM91.8924 8.95734C94.4864 8.95734 96.3392 10.6866 96.3392 13.7747C96.3392 16.8627 94.4864 18.592 91.8924 18.592C89.2984 18.592 87.4456 16.8627 87.4456 13.7747C87.4456 10.6866 89.2984 8.95734 91.8924 8.95734ZM50.7716 20.1978H52.995V12.91C52.995 10.4395 54.8731 9.32886 56.6265 9.32886H57.7127V7.30208L56.6265 7.30208C54.8725 7.30208 53.9832 7.82087 53.415 9.05609C53.3656 9.17961 53.3162 9.25372 53.1679 9.25372C53.0444 9.25372 52.995 9.20431 52.995 9.08079V7.35149H50.7716V20.1978ZM45.2175 20.1978V7.35153H47.4409V20.1978H45.2175ZM30.2931 16.4181C30.2931 14.1947 31.7753 12.8236 34.9869 12.6877L39.6807 12.4901V11.7983C39.6807 9.97022 38.742 8.90793 36.4692 8.90793C34.1964 8.90793 33.2823 9.97022 33.2329 11.3043H30.9354C31.0342 8.85852 32.7635 6.98099 36.4692 6.98099C40.1748 6.98099 41.83 8.85852 41.83 11.9219V20.1978H39.7054V18.8391C39.7054 18.7403 39.656 18.6909 39.5572 18.6909C39.4584 18.6909 39.409 18.7156 39.3102 18.8391C38.3961 20.062 37.0374 20.5684 35.3575 20.5684C32.1459 20.5684 30.2931 18.8885 30.2931 16.4181ZM32.5165 16.4181C32.5165 17.7768 33.6282 18.6415 35.6045 18.6415C38.075 18.6415 39.6807 17.2333 39.6807 14.5158V14.3676L34.9869 14.5652C33.2576 14.6393 32.5165 15.3064 32.5165 16.4181ZM15.8196 4.7966C13.7851 1.57506 9.08709 1.57506 7.05261 4.7966L0.809301 14.6827C-1.37082 18.1349 1.10986 22.6354 5.19279 22.6354H6.81898C8.87478 22.6354 10.5413 20.9689 10.5413 18.913C10.5413 16.433 8.66916 14.5406 5.25545 14.5406L5.26183 12.7212C8.63359 12.7212 9.91316 11.6688 10.5413 7.4338L12.3435 7.42749C13.0669 11.6561 14.1822 12.7212 16.9756 12.7212C18.6462 12.7212 19.6612 10.8797 18.7692 9.46718L15.8196 4.7966ZM12.3435 18.9067C12.3435 20.966 14.0129 22.6354 16.0722 22.6354H17.754C19.539 22.6354 22.7178 20.8125 22.7178 18.0168C22.7178 15.7095 20.6747 14.5406 18.8028 14.5406H16.9756C13.9955 14.5406 12.3435 16.433 12.3435 18.9067Z"
        fill="white" />
</svg>